# File created by Blade
# Date/Time:  Fri Jan 16 19:18:48 2015
#---------------------------------------------------------
:version 1.10
:name HOM
:units
  mass 1.0
  length 1.000000
  angle deg
:documentation
     Acclaim Skeleton File
:root
   axis xyz
   order TX TY TZ RX RY RZ
   position 0.000000 0.000000 0.000000
   orientation 0 0 0
:bonedata
   begin
      id 1
      name Spine_dum
      direction 0.000000 1.000000 0.000000
      length 7.067664
      axis 0.0 0.0 0.0 xyz
   end
   begin
      id 2
      name LeftUpLeg_dum
      direction 1.000000 0.000000 0.000000
      length 4.013002
      axis 0.0 0.0 0.0 xyz
   end
   begin
      id 3
      name RightUpLeg_dum
      direction -1.000000 0.000000 0.000000
      length 4.013002
      axis 0.0 0.0 0.0 xyz
   end
   begin
      id 4
      name Spine
      direction 0.000000 1.000000 0.000000
      length 0.000000
      axis 0.0 0.0 0.0 xyz
      dof rx ry rz
   end
   begin
      id 5
      name Spine_dum1
      direction 0.000000 1.000000 0.000000
      length 15.039886
      axis 0.0 0.0 0.0 xyz
   end
   begin
      id 6
      name Spine_dum2
      direction 0.000000 1.000000 0.000000
      length 10.530368
      axis 0.0 0.0 0.0 xyz
   end
   begin
      id 7
      name Spine_dum3
      direction 0.000000 1.000000 0.000000
      length 10.530368
      axis 0.0 0.0 0.0 xyz
   end
   begin
      id 8
      name Head
      direction 0.000000 1.000000 0.000000
      length 4.527550
      axis 0.0 0.0 0.0 xyz
      dof rx ry rz
   end
   begin
      id 9
      name LeftShoulder
      direction 1.000000 0.000000 0.000000
      length 7.028855
      axis 0.0 0.0 -90.0 xyz
      dof rx ry rz
   end
   begin
      id 10
      name LeftArm
      direction 1.000000 0.000000 0.000000
      length 10.797705
      axis 0.0 0.0 -90.0 xyz
      dof rx ry rz
   end
   begin
      id 11
      name LeftForeArm
      direction 1.000000 0.000000 0.000000
      length 7.907442
      axis 0.0 0.0 -90.0 xyz
      dof ry rz rx
   end
   begin
      id 12
      name LeftHand
      direction 0.000000 0.000000 0.000000
      length 0.000000
      axis 0.0 0.0 -90.0 xyz
      dof rx ry rz
   end
   begin
      id 13
      name LeftHand_dum1
      direction 0.000000 0.000000 0.000000
      length 0.000000
      axis 0.0 0.0 -90.0 xyz
   end
   begin
      id 14
      name LeftHand_dum2
      direction 1.000000 0.000000 0.000000
      length 3.937000
      axis 0.0 0.0 -90.0 xyz
   end
   begin
      id 15
      name LeftHandThumb1
      direction 0.000000 0.000000 1.000000
      length 3.937000
      axis 0.0 0.0 -90.0 xyz
      dof rx rz ry
   end
   begin
      id 16
      name RightShoulder
      direction -1.000000 0.000000 0.000000
      length 7.028855
      axis 0.0 0.0 90.0 xyz
      dof rx ry rz
   end
   begin
      id 17
      name RightArm
      direction -1.000000 0.000000 0.000000
      length 10.797705
      axis 0.0 0.0 90.0 xyz
      dof rx ry rz
   end
   begin
      id 18
      name RightForeArm
      direction -1.000000 0.000000 0.000000
      length 7.907442
      axis 0.0 0.0 90.0 xyz
      dof ry rz rx
   end
   begin
      id 19
      name RightHand
      direction 0.000000 0.000000 0.000000
      length 0.000000
      axis 0.0 0.0 90.0 xyz
      dof rx ry rz
   end
   begin
      id 20
      name RightHand_dum1
      direction 0.000000 0.000000 0.000000
      length 0.000000
      axis 0.0 0.0 90.0 xyz
   end
   begin
      id 21
      name RightHand_dum2
      direction -1.000000 0.000000 0.000000
      length 3.937000
      axis 0.0 0.0 90.0 xyz
   end
   begin
      id 22
      name RightHandThumb1
      direction 0.000000 0.000000 1.000000
      length 3.937000
      axis 0.0 0.0 90.0 xyz
      dof rx rz ry
   end
   begin
      id 23
      name LeftUpLeg
      direction 0.000000 -1.000000 0.000000
      length 16.899758
      axis 0.0 0.0 0.0 xyz
      dof rx ry rz
   end
   begin
      id 24
      name LeftLeg
      direction 0.000000 -1.000000 0.000000
      length 17.389183
      axis 0.0 0.0 0.0 xyz
      dof rx ry rz
   end
   begin
      id 25
      name LeftFoot
      direction 0.000000 -0.258819 0.965926
      length 4.924528
      axis 15.0 0.0 0.0 xyz
      dof rx ry rz
   end
   begin
      id 26
      name LeftToeBase
      direction 0.000000 0.000000 1.000000
      length 2.952750
      axis 0.0 0.0 0.0 xyz
      dof rx ry rz
   end
   begin
      id 27
      name RightUpLeg
      direction 0.000000 -1.000000 0.000000
      length 16.899758
      axis 0.0 0.0 0.0 xyz
      dof rx ry rz
   end
   begin
      id 28
      name RightLeg
      direction 0.000000 -1.000000 0.000000
      length 17.389183
      axis 0.0 0.0 0.0 xyz
      dof rx ry rz
   end
   begin
      id 29
      name RightFoot
      direction 0.000000 -0.258819 0.965926
      length 4.924528
      axis 15.0 0.0 0.0 xyz
      dof rx ry rz
   end
   begin
      id 30
      name RightToeBase
      direction 0.000000 0.000000 1.000000
      length 2.952750
      axis 0.0 0.0 0.0 xyz
      dof rx ry rz
   end
:hierarchy
   begin
      root Spine_dum LeftUpLeg_dum RightUpLeg_dum
      Spine_dum Spine
      LeftUpLeg_dum LeftUpLeg
      RightUpLeg_dum RightUpLeg
      Spine Spine_dum1 Spine_dum2 Spine_dum3
      Spine_dum1 Head
      Spine_dum2 LeftShoulder
      Spine_dum3 RightShoulder
      LeftShoulder LeftArm
      LeftArm LeftForeArm
      LeftForeArm LeftHand
      LeftHand LeftHand_dum1 LeftHand_dum2
      LeftHand_dum1 LeftHandThumb1
      RightShoulder RightArm
      RightArm RightForeArm
      RightForeArm RightHand
      RightHand RightHand_dum1 RightHand_dum2
      RightHand_dum1 RightHandThumb1
      LeftUpLeg LeftLeg
      LeftLeg LeftFoot
      LeftFoot LeftToeBase
      RightUpLeg RightLeg
      RightLeg RightFoot
      RightFoot RightToeBase
   end

# File created by Blade
# Date/Time:  Fri Jan 16 19:18:57 2015
# Frame Rate: 120.000 fps
#------------------------------------------------------
:FULLY-SPECIFIED
:DEGREES
70
root 19.864560 35.535956 -22.399968 -171.313907 0.934352 -179.384620
Spine -20.239268 0.633521 0.148317
Head 8.914060 0.365532 1.363709
LeftShoulder -12.008585 -29.129666 17.934733
LeftArm 3.846293 1.707797 -8.156046
LeftForeArm 8.505819 -0.000000 -2.734402
LeftHand -6.263931 -0.000000 -7.327847
LeftHandThumb1 -26.253704 0.000000 33.147579
RightShoulder -11.375404 -8.464701 -10.028388
RightArm 6.987287 39.958088 14.745753
RightForeArm -31.987989 0.000000 3.337827
RightHand -6.169880 -0.000000 9.536127
RightHandThumb1 -24.326973 -0.000000 -32.862282
LeftUpLeg 0.612415 10.137483 -0.306484
LeftLeg -6.424605 -0.000000 0.000000
LeftFoot -20.884954 26.695656 -13.903958
LeftToeBase 25.892640 -0.000000 -0.000000
RightUpLeg -0.808641 -4.236873 -0.161933
RightLeg -2.564348 -0.000000 0.000000
RightFoot -21.895608 -25.140140 14.854849
RightToeBase 24.166546 -0.000000 -0.000000
71
root 19.864009 35.537135 -22.398301 -171.315796 0.928781 -179.386812
Spine -20.249243 0.617325 0.158567
Head 8.951590 0.395690 1.332975
LeftShoulder -11.965964 -29.164963 17.940138
LeftArm 3.793352 1.678197 -8.146698
LeftForeArm 8.468552 -0.000000 -2.786895
LeftHand -6.251669 -0.000000 -7.375922
LeftHandThumb1 -26.253704 0.000000 33.147579
RightShoulder -11.348286 -8.440243 -10.077409
RightArm 7.048149 40.159859 14.749095
RightForeArm -31.994901 -0.000000 3.194839
RightHand -6.096084 -0.000000 9.613834
RightHandThumb1 -24.326973 -0.000000 -32.862282
LeftUpLeg 0.617633 10.128684 -0.308873
LeftLeg -6.438940 -0.000000 0.000000
LeftFoot -20.864441 26.696141 -13.920957
LeftToeBase 25.879171 -0.000000 -0.000000
RightUpLeg -0.810594 -4.230946 -0.165297
RightLeg -2.561788 -0.000000 0.000000
RightFoot -21.874989 -25.065311 15.013259
RightToeBase 23.801322 -0.000000 -0.000000
72
root 19.863667 35.538096 -22.397527 -171.322570 0.913768 -179.387059
Spine -20.256336 0.595168 0.171957
Head 8.989953 0.408016 1.292212
LeftShoulder -11.918917 -29.202154 17.945102
LeftArm 3.746782 1.627197 -8.129181
LeftForeArm 8.393593 -0.000000 -2.837220
LeftHand -6.266678 -0.000000 -7.443657
LeftHandThumb1 -26.253704 0.000000 33.147579
RightShoulder -11.351621 -8.415345 -10.114102
RightArm 7.162224 40.287009 14.744009
RightForeArm -32.067664 -0.000000 3.044289
RightHand -6.090389 -0.000000 9.707386
RightHandThumb1 -24.326973 -0.000000 -32.862282
LeftUpLeg 0.624441 10.126095 -0.306179
LeftLeg -6.444586 -0.000000 0.000000
LeftFoot -20.859328 26.677197 -13.930877
LeftToeBase 25.883444 -0.000000 -0.000000
RightUpLeg -0.801013 -4.228957 -0.163354
RightLeg -2.564214 -0.000000 0.000000
RightFoot -21.895255 -25.131311 14.867685
RightToeBase 24.235655 -0.000000 -0.000000
73
root 19.863325 35.539230 -22.395965 -171.326558 0.895098 -179.389777
Spine -20.270061 0.580351 0.183227
Head 9.052940 0.427800 1.238515
LeftShoulder -11.842146 -29.237915 17.943868
LeftArm 3.684405 1.577033 -8.113999
LeftForeArm 8.339507 -0.000000 -2.891915
LeftHand -6.280301 -0.000000 -7.523870
LeftHandThumb1 -26.253704 0.000000 33.147579
RightShoulder -11.319185 -8.344034 -10.162088
RightArm 7.173098 40.464472 14.638741
RightForeArm -31.924842 -0.000000 2.884939
RightHand -5.927906 -0.000000 9.847532
RightHandThumb1 -24.326973 -0.000000 -32.862282
LeftUpLeg 0.621939 10.126325 -0.307658
LeftLeg -6.443502 -0.000000 0.000000
LeftFoot -20.854199 26.664342 -13.957400
LeftToeBase 25.883743 -0.000000 -0.000000
RightUpLeg -0.794915 -4.236512 -0.164674
RightLeg -2.567477 -0.000000 0.000000
RightFoot -21.886738 -25.133417 14.887742
RightToeBase 24.155515 -0.000000 -0.000000
74
root 19.863284 35.540529 -22.395158 -171.330058 0.879472 -179.385736
Spine -20.287912 0.571839 0.197837
Head 9.115344 0.445199 1.197079
LeftShoulder -11.765574 -29.297939 17.954917
LeftArm 3.632783 1.522885 -8.096542
LeftForeArm 8.296127 0.000000 -2.963243
LeftHand -6.341543 0.000000 -7.530213
LeftHandThumb1 -26.253704 0.000000 33.147579
RightShoulder -11.360563 -8.381935 -10.184927
RightArm 7.386572 40.750548 14.641724
RightForeArm -31.854332 0.000000 2.657762
RightHand -5.840628 -0.000000 9.885191
RightHandThumb1 -24.326973 -0.000000 -32.862282
LeftUpLeg 0.626930 10.115692 -0.301069
LeftLeg -6.449854 -0.000000 0.000000
LeftFoot -20.835805 26.651152 -13.960505
LeftToeBase 25.845269 -0.000000 -0.000000
RightUpLeg -0.790817 -4.245000 -0.159066
RightLeg -2.569558 -0.000000 0.000000
RightFoot -21.863748 -25.123527 14.996459
RightToeBase 23.896727 -0.000000 -0.000000
75
root 19.863421 35.541933 -22.394056 -171.331257 0.862910 -179.386048
Spine -20.302941 0.555075 0.208345
Head 9.168260 0.470872 1.155298
LeftShoulder -11.694690 -29.368082 17.965812
LeftArm 3.587718 1.488093 -8.058575
LeftForeArm 8.317015 -0.000000 -3.036231
LeftHand -6.355786 -0.000000 -7.679089
LeftHandThumb1 -26.253704 0.000000 33.147579
RightShoulder -11.329221 -8.295080 -10.254472
RightArm 7.393238 40.898935 14.532092
RightForeArm -31.791955 0.000000 2.507184
RightHand -5.714063 -0.000000 9.999815
RightHandThumb1 -24.326973 -0.000000 -32.862282
LeftUpLeg 0.619083 10.139313 -0.294476
LeftLeg -6.428148 -0.000000 0.000000
LeftFoot -20.822054 26.560791 -13.951657
LeftToeBase 25.872702 -0.000000 -0.000000
RightUpLeg -0.785163 -4.245829 -0.155518
RightLeg -2.577282 -0.000000 0.000000
RightFoot -21.879879 -25.166774 14.950510
RightToeBase 24.132283 -0.000000 -0.000000
76
root 19.862025 35.543290 -22.392795 -171.331730 0.843102 -179.390755
Spine -20.320667 0.533237 0.216304
Head 9.222139 0.498360 1.126647
LeftShoulder -11.632095 -29.451062 17.997802
LeftArm 3.553623 1.443332 -8.027961
LeftForeArm 8.251402 -0.000000 -3.119696
LeftHand -6.399971 -0.000000 -7.808157
LeftHandThumb1 -26.253704 0.000000 33.147579
RightShoulder -11.265919 -8.225171 -10.349131
RightArm 7.351283 41.126470 14.408420
RightForeArm -31.691653 -0.000000 2.411569
RightHand -5.618116 -0.000000 10.159432
RightHandThumb1 -24.326973 -0.000000 -32.862282
LeftUpLeg 0.611466 10.153152 -0.307345
LeftLeg -6.438292 -0.000000 0.000000
LeftFoot -20.788645 26.589148 -13.954630
LeftToeBase 25.809741 -0.000000 -0.000000
RightUpLeg -0.783258 -4.261454 -0.159749
RightLeg -2.584203 -0.000000 0.000000
RightFoot -21.857399 -25.100276 15.037027
RightToeBase 23.977972 -0.000000 -0.000000
77
root 19.861744 35.544702 -22.391810 -171.332289 0.833527 -179.392631
Spine -20.340781 0.526063 0.221827
Head 9.289746 0.516431 1.088152
LeftShoulder -11.575514 -29.518704 18.030068
LeftArm 3.561836 1.384482 -7.993498
LeftForeArm 8.179874 -0.000000 -3.218774
LeftHand -6.489036 0.000000 -7.879576
LeftHandThumb1 -26.253704 0.000000 33.147579
RightShoulder -11.222810 -8.162123 -10.445060
RightArm 7.358621 41.389213 14.298231
RightForeArm -31.606563 -0.000000 2.303722
RightHand -5.544878 -0.000000 10.235467
RightHandThumb1 -24.326973 -0.000000 -32.862282
LeftUpLeg 0.611497 10.149908 -0.309885
LeftLeg -6.446138 -0.000000 0.000000
LeftFoot -20.774996 26.587255 -13.978063
LeftToeBase 25.769865 -0.000000 -0.000000
RightUpLeg -0.783575 -4.267059 -0.160599
RightLeg -2.582542 -0.000000 0.000000
RightFoot -21.861893 -25.115963 15.095018
RightToeBase 23.877862 -0.000000 -0.000000
78
root 19.861072 35.546243 -22.390970 -171.336721 0.815187 -179.397479
Spine -20.356295 0.498591 0.225337
Head 9.355872 0.545774 1.077217
LeftShoulder -11.526807 -29.611801 18.092506
LeftArm 3.553525 1.316538 -7.964609
LeftForeArm 8.036967 0.000000 -3.311247
LeftHand -6.520672 -0.000000 -7.935178
LeftHandThumb1 -26.253704 0.000000 33.147579
RightShoulder -11.145307 -8.077760 -10.544940
RightArm 7.291891 41.636841 14.124376
RightForeArm -31.366577 -0.000000 2.286742
RightHand -5.597682 -0.000000 10.379073
RightHandThumb1 -24.326973 -0.000000 -32.862282
LeftUpLeg 0.614264 10.147149 -0.313923
LeftLeg -6.449610 -0.000000 0.000000
LeftFoot -20.788539 26.561525 -14.021572
LeftToeBase 25.818649 -0.000000 -0.000000
RightUpLeg -0.778252 -4.282263 -0.165253
RightLeg -2.583131 -0.000000 0.000000
RightFoot -21.848599 -25.107099 15.110088
RightToeBase 23.832917 -0.000000 -0.000000
